<?xml version="1.0" encoding="UTF-8" standalone="no"?>
<!-- Created with Inkscape (http://www.inkscape.org/) -->

<svg
   xmlns:dc="http://purl.org/dc/elements/1.1/"
   xmlns:cc="http://creativecommons.org/ns#"
   xmlns:rdf="http://www.w3.org/1999/02/22-rdf-syntax-ns#"
   xmlns:svg="http://www.w3.org/2000/svg"
   xmlns="http://www.w3.org/2000/svg"
   xmlns:sodipodi="http://sodipodi.sourceforge.net/DTD/sodipodi-0.dtd"
   xmlns:inkscape="http://www.inkscape.org/namespaces/inkscape"
   width="210mm"
   height="297mm"
   viewBox="0 0 744.09448819 1052.3622047"
   id="svg2"
   version="1.1"
   inkscape:version="0.91 r13725"
   sodipodi:docname="icons.svg">
  <defs
     id="defs4" />
  <sodipodi:namedview
     id="base"
     pagecolor="#ffffff"
     bordercolor="#666666"
     borderopacity="1.0"
     inkscape:pageopacity="0.0"
     inkscape:pageshadow="2"
     inkscape:zoom="1.4"
     inkscape:cx="150.21469"
     inkscape:cy="778.63249"
     inkscape:document-units="px"
     inkscape:current-layer="layer1"
     showgrid="false"
     inkscape:window-width="1366"
     inkscape:window-height="705"
     inkscape:window-x="-8"
     inkscape:window-y="-8"
     inkscape:window-maximized="1" />
  <metadata
     id="metadata7">
    <rdf:RDF>
      <cc:Work
         rdf:about="">
        <dc:format>image/svg+xml</dc:format>
        <dc:type
           rdf:resource="http://purl.org/dc/dcmitype/StillImage" />
        <dc:title></dc:title>
      </cc:Work>
    </rdf:RDF>
  </metadata>
  <g
     inkscape:label="Camada 1"
     inkscape:groupmode="layer"
     id="layer1">
    <rect
       style="opacity:0.95999995;fill:#f2f2f2;fill-opacity:1;stroke:none;stroke-width:2.79999995;stroke-linecap:round;stroke-miterlimit:4;stroke-dasharray:none;stroke-opacity:1"
       id="rect4136"
       width="128"
       height="128"
       x="57.578697"
       y="138.46352" />
    <rect
       style="opacity:0.95999995;fill:#f2f2f2;fill-opacity:1;stroke:none;stroke-width:2.79999995;stroke-linecap:round;stroke-miterlimit:4;stroke-dasharray:none;stroke-opacity:1"
       id="rect4138"
       width="16"
       height="16"
       x="306.0762"
       y="247.43306" />
    <rect
       style="opacity:0.95999995;fill:#f2f2f2;fill-opacity:1;stroke:none;stroke-width:2.79999995;stroke-linecap:round;stroke-miterlimit:4;stroke-dasharray:none;stroke-opacity:1"
       id="rect4140"
       width="48"
       height="48"
       x="219.20309"
       y="218.46355" />
    <rect
       style="opacity:0.95999995;fill:#f2f2f2;fill-opacity:1;stroke:none;stroke-width:2.79999995;stroke-linecap:round;stroke-miterlimit:4;stroke-dasharray:none;stroke-opacity:1"
       id="rect4142"
       width="19"
       height="19"
       x="130.30968"
       y="357.57016" />
    <rect
       style="opacity:0.95999995;fill:#f2f2f2;fill-opacity:1;stroke:none;stroke-width:2.79999995;stroke-linecap:round;stroke-miterlimit:4;stroke-dasharray:none;stroke-opacity:1"
       id="rect4144"
       width="38"
       height="38"
       x="62.629459"
       y="336.5498" />
    <path
       style="opacity:0.95999995;fill:#ffcc00;fill-opacity:1;stroke:none;stroke-width:2.79999995;stroke-linecap:round;stroke-miterlimit:4;stroke-dasharray:none;stroke-opacity:1"
       d="m 62.437749,223.222 c -1.870656,1.86068 -1.025071,5.71924 1.893834,8.65377 l 27.319375,27.46601 c 2.918872,2.93455 6.772857,3.80081 8.643522,1.94014 l 9.50434,-9.45362 39.01992,-38.8116 16.25617,-16.16938 16.7458,-44.78318 a 9.2959474,9.2959474 0 0 0 -2.67547,-7.06932 9.2959474,9.2959474 0 0 0 -7.04429,-2.71535 l -44.88277,16.50793 -16.25616,16.1694 -39.019917,38.81159 -9.504354,9.45361 z M 169.00367,147.97979 a 5.035305,5.035305 0 0 1 7.12143,0.019 5.035305,5.035305 0 0 1 -0.019,7.12143 5.035305,5.035305 0 0 1 -7.12141,-0.019 5.035305,5.035305 0 0 1 0.019,-7.12141 z"
       id="rect4151"
       inkscape:connector-curvature="0" />
    <path
       inkscape:connector-curvature="0"
       id="path4175"
       d="m 222.90222,248.93592 c -0.63854,0.63514 -0.3499,1.95224 0.64645,2.95392 l 9.32533,9.37538 c 0.99634,1.00169 2.31188,1.29739 2.95042,0.66226 l 3.24425,-3.22695 13.31925,-13.24813 5.54896,-5.51933 5.71609,-15.28651 a 3.1731226,3.1731226 0 0 0 -0.91326,-2.41307 3.1731226,3.1731226 0 0 0 -2.40453,-0.92687 l -15.3205,5.63489 -5.54895,5.51934 -13.31925,13.24813 -3.24426,3.22694 z m 36.37572,-25.68353 a 1.7187748,1.7187748 0 0 1 2.43086,0.006 1.7187748,1.7187748 0 0 1 -0.006,2.43086 1.7187748,1.7187748 0 0 1 -2.43086,-0.006 1.7187748,1.7187748 0 0 1 0.006,-2.43085 z"
       style="opacity:0.95999995;fill:#ffcc00;fill-opacity:1;stroke:none;stroke-width:2.79999995;stroke-linecap:round;stroke-miterlimit:4;stroke-dasharray:none;stroke-opacity:1" />
    <path
       style="opacity:0.95999995;fill:#ffcc00;fill-opacity:1;stroke:none;stroke-width:2.79999995;stroke-linecap:round;stroke-miterlimit:4;stroke-dasharray:none;stroke-opacity:1"
       d="m 307.43378,257.85446 c -0.20704,0.20594 -0.11345,0.633 0.20961,0.95779 l 3.02368,3.03991 c 0.32306,0.3248 0.74962,0.42067 0.95666,0.21474 l 1.05193,-1.04632 4.31869,-4.29563 1.79921,-1.78961 1.85341,-4.95656 a 1.028866,1.028866 0 0 0 -0.29612,-0.78242 1.028866,1.028866 0 0 0 -0.77965,-0.30053 l -4.96758,1.82708 -1.79922,1.78961 -4.31868,4.29563 -1.05194,1.04631 z m 11.79461,-8.32773 a 0.55730241,0.55730241 0 0 1 0.7882,0.002 0.55730241,0.55730241 0 0 1 -0.002,0.78819 0.55730241,0.55730241 0 0 1 -0.78819,-0.002 0.55730241,0.55730241 0 0 1 0.002,-0.78819 z"
       id="path4177"
       inkscape:connector-curvature="0" />
    <path
       style="opacity:0.95999995;fill:#ffcc00;fill-opacity:1;stroke:none;stroke-width:2.79999995;stroke-linecap:round;stroke-miterlimit:4;stroke-dasharray:none;stroke-opacity:1"
       d="m 64.633721,361.76906 c -0.538148,0.53528 -0.294888,1.6453 0.544814,2.4895 l 7.859182,7.90136 c 0.839694,0.8442 1.948402,1.09341 2.486549,0.55814 l 2.734183,-2.7196 11.22517,-11.16524 4.676541,-4.65156 4.817398,-12.88314 a 2.6742378,2.6742378 0 0 0 -0.769676,-2.03368 2.6742378,2.6742378 0 0 0 -2.026485,-0.78115 l -12.911782,4.74896 -4.676533,4.65158 -11.22517,11.16523 -2.734191,2.7196 z m 30.656658,-21.64551 a 1.4485455,1.4485455 0 0 1 2.048675,0.005 1.4485455,1.4485455 0 0 1 -0.0051,2.04868 1.4485455,1.4485455 0 0 1 -2.048675,-0.005 1.4485455,1.4485455 0 0 1 0.0051,-2.04867 z"
       id="path4179"
       inkscape:connector-curvature="0" />
    <path
       inkscape:connector-curvature="0"
       id="path4181"
       d="m 131.53508,370.08694 c -0.2606,0.2592 -0.1428,0.79672 0.26382,1.20551 l 3.80571,3.82614 c 0.40661,0.40879 0.94349,0.52947 1.20408,0.27027 l 1.324,-1.31693 5.43566,-5.40664 2.26456,-2.25246 2.33276,-6.23851 a 1.2949682,1.2949682 0 0 0 -0.3727,-0.98479 1.2949682,1.2949682 0 0 0 -0.9813,-0.37826 l -6.25238,2.29963 -2.26456,2.25247 -5.43565,5.40664 -1.324,1.31693 z m 14.84512,-10.48159 a 0.70144112,0.70144112 0 0 1 0.99205,0.002 0.70144112,0.70144112 0 0 1 -0.002,0.99205 0.70144112,0.70144112 0 0 1 -0.99205,-0.002 0.70144112,0.70144112 0 0 1 0.002,-0.99204 z"
       style="opacity:0.95999995;fill:#ffcc00;fill-opacity:1;stroke:none;stroke-width:2.79999995;stroke-linecap:round;stroke-miterlimit:4;stroke-dasharray:none;stroke-opacity:1" />
  </g>
</svg>
