<?xml version="1.0" encoding="UTF-8" standalone="no"?>
<!-- Created with Inkscape (http://www.inkscape.org/) -->

<svg
   xmlns:dc="http://purl.org/dc/elements/1.1/"
   xmlns:cc="http://creativecommons.org/ns#"
   xmlns:rdf="http://www.w3.org/1999/02/22-rdf-syntax-ns#"
   xmlns:svg="http://www.w3.org/2000/svg"
   xmlns="http://www.w3.org/2000/svg"
   xmlns:sodipodi="http://sodipodi.sourceforge.net/DTD/sodipodi-0.dtd"
   xmlns:inkscape="http://www.inkscape.org/namespaces/inkscape"
   width="210mm"
   height="297mm"
   viewBox="0 0 744.09448819 1052.3622047"
   id="svg2"
   version="1.1"
   inkscape:version="0.91 r13725"
   sodipodi:docname="icons.svg">
  <defs
     id="defs4" />
  <sodipodi:namedview
     id="base"
     pagecolor="#ffffff"
     bordercolor="#666666"
     borderopacity="1.0"
     inkscape:pageopacity="0.0"
     inkscape:pageshadow="2"
     inkscape:zoom="3.959798"
     inkscape:cx="334.92805"
     inkscape:cy="772.505"
     inkscape:document-units="px"
     inkscape:current-layer="layer1"
     showgrid="false"
     inkscape:window-width="1366"
     inkscape:window-height="714"
     inkscape:window-x="0"
     inkscape:window-y="0"
     inkscape:window-maximized="1" />
  <metadata
     id="metadata7">
    <rdf:RDF>
      <cc:Work
         rdf:about="">
        <dc:format>image/svg+xml</dc:format>
        <dc:type
           rdf:resource="http://purl.org/dc/dcmitype/StillImage" />
      </cc:Work>
    </rdf:RDF>
  </metadata>
  <g
     inkscape:label="Camada 1"
     inkscape:groupmode="layer"
     id="layer1">
    <g
       id="xxicon128"
       transform="translate(67.591011,152.95867)"
       inkscape:label="#g4457">
      <rect
         style="opacity:1;fill:#f2f2f2;fill-opacity:1;stroke:none;stroke-width:2.79999995;stroke-linecap:round;stroke-miterlimit:4;stroke-dasharray:none;stroke-opacity:1"
         id="rect3380"
         width="128"
         height="128"
         x="39.901028"
         y="-22.150738" />
      <rect
         style="opacity:1;fill:#c83737;fill-opacity:1;stroke:none;stroke-width:2.79999995;stroke-linecap:round;stroke-miterlimit:4;stroke-dasharray:none;stroke-opacity:1"
         id="rect3384"
         width="112.48904"
         height="81.242088"
         x="25.874102"
         y="37.758602"
         ry="14.999999"
         rx="14.999999"
         transform="matrix(0.93227343,-0.36175442,0.36175442,0.93227343,0,0)" />
      <path
         id="text3404"
         d="m 47.779297,6.0742188 c -1.886407,-0.053829 -3.600878,0.3405093 -4.865235,1.9726562 -0.821739,3.590961 1.652996,8.442713 -2.808593,10.644531 -0.07028,0.03479 -0.13486,0.06183 -0.205078,0.0957 l 0,14.039063 c 0.289931,-0.06957 0.594265,-0.170509 0.916015,-0.308594 2.739596,0.04432 1.153392,4.86594 1.791016,6.515625 -0.381626,8.327436 -1.7674,19.833469 6.74414,24.736328 7.462834,3.262222 15.808903,1.473112 23.654297,1.707031 -1.165847,-4.586761 2.300509,-10.300131 -1.792968,-14.060546 -3.453189,0.03468 -10.12861,2.477881 -11.365235,-2.238282 2.37008,-5.318038 -2.951875,-12.511136 1.986328,-16.5625 4.401248,-0.275127 10.480562,1.727472 13.226563,-3.191406 C 73.014305,26.19013 77.019872,20.046969 71.640625,18.724606 67.866493,17.164837 61.002538,21.3848 59.757812,16.068356 59.834832,13.136927 61.856087,6.4259832 57.345703,6.4179658 54.543789,7.4980852 50.923309,6.1639305 47.779297,6.0742158 Z M 97.568359,17.640625 c -6.196924,0.267482 -12.530682,0.667779 -18.359375,2.986328 0.89899,4.638822 -2.171372,10.075119 1.326172,14.123047 7.092035,-3.342462 17.40898,-6.904727 23.841794,-1.027344 -4.51922,1.455806 -9.735211,-0.635213 -14.468747,1.033203 -8.059384,1.041583 -15.32564,7.776502 -14.75,16.263672 -0.02963,11.168559 12.776969,18.723251 22.921875,15.113281 2.381262,-0.107026 5.301982,-3.140598 6.689452,-3.066406 1.29849,5.340036 7.81451,1.972405 11.42774,2.423828 2.694,-0.301068 6.87132,0.945194 6.34961,-3.021484 0.26184,-7.248948 -0.541,-14.482136 0.14062,-21.730469 0.45802,-8.957935 -3.402,-19.738104 -13.14453,-21.78125 -3.87602,-1.150139 -7.95555,-1.35423 -11.974611,-1.316406 z m 51.121091,0.07617 c -0.45651,-0.007 -0.91348,-0.0024 -1.36914,0.01367 -13.74674,0.470618 -21.32338,16.413201 -18.82617,28.654297 0.70073,12.999908 15.83581,23.99516 28.02734,17.552734 1.78117,-0.541863 5.08865,-4.314491 3.34375,-0.412109 -3.06572,8.346474 -14.03735,6.554059 -20.5039,3.755859 -4.83791,-2.936819 -6.70485,-3.226653 -5.67383,2.722656 -1.23025,4.032306 -1.06802,10.874659 4.60938,10.998047 9.36953,2.482604 21.13133,2.722433 29.60351,-2.416015 l 0,-60.146485 c -3.05781,-0.189918 -5.93119,0.0854 -7.39648,2.744141 -2.32121,0.455458 -4.85633,-3.021792 -7.73829,-3.019532 -1.3384,-0.294281 -2.70662,-0.426323 -4.07617,-0.447265 z m 4.4961,13.888672 c 8.58866,0.736815 9.37042,13.877526 4.10547,18.779297 -5.55199,4.082698 -11.8341,-1.937369 -11.05469,-7.863282 0.0839,-4.301822 1.31486,-11.10696 6.94922,-10.916015 z M 103.01758,45.97656 c 4.13946,1.678593 -0.73054,7.69244 -3.832033,7.5 -3.984487,1.839124 -8.688035,-3.803666 -4.355469,-6.310546 2.564643,-1.103135 5.465652,-0.879848 8.187502,-1.189454 z"
         style="font-style:normal;font-variant:normal;font-weight:bold;font-stretch:normal;font-size:78.32198334px;line-height:125%;font-family:'Trebuchet MS';-inkscape-font-specification:'Trebuchet MS Bold';letter-spacing:0px;word-spacing:0px;opacity:1;fill:#c83737;fill-opacity:1;stroke:none;stroke-width:1px;stroke-linecap:butt;stroke-linejoin:miter;stroke-opacity:1"
         inkscape:connector-curvature="0" />
      <path
         id="rect4286"
         d="m 44.458984,8.4707031 0,12.2031249 -4.558593,0 0,9.822266 4.558593,0 0,18.226562 c 0,5.4233 1.117474,9.274019 3.353516,11.550782 2.261451,2.251181 6.085829,3.376953 11.472656,3.376953 l 11.701172,0 0,-9.824219 -7.013672,0 c -2.337679,0 -3.899803,-0.344453 -4.6875,-1.035156 -0.787696,-0.716286 -1.18164,-2.072995 -1.18164,-4.06836 l 0,-18.226562 14.064453,0 0,-9.822266 -14.064453,0 0,-12.2031249 -13.644532,0 z M 98.734375,19.636719 c -2.947509,0 -5.896241,0.192448 -8.84375,0.576172 -2.947509,0.358143 -5.880635,0.895043 -8.802734,1.611328 l 0,10.476562 c 2.159812,-1.176754 4.496172,-2.060061 7.011718,-2.648437 2.515547,-0.588377 5.234151,-0.882813 8.15625,-0.882813 3.608161,0 6.264361,0.511892 7.966801,1.535157 1.70244,0.997683 2.55273,2.583376 2.55273,4.757812 l 0,1.074219 -8.041015,0 c -7.368772,0 -12.780627,1.177742 -16.236328,3.53125 -3.430291,2.353507 -5.146485,6.050267 -5.146485,11.089843 0,4.14422 1.372955,7.519583 4.117188,10.128907 2.769642,2.583742 6.363893,3.876953 10.785156,3.876953 3.277834,0 6.060794,-0.588871 8.347654,-1.765625 2.28686,-1.202335 4.34434,-3.107473 6.17383,-5.716797 l 0,6.369141 13.75977,0 0,-24.519532 c 0,-6.881451 -1.71424,-11.844461 -5.14454,-14.888671 -3.40487,-3.069793 -8.95715,-4.605469 -16.656245,-4.605469 z m 49.548825,0.07617 c -5.20896,0 -9.51699,2.061048 -12.92187,6.179687 -3.40489,4.093056 -5.10742,9.348548 -5.10742,15.769531 0,6.395401 1.70253,11.666328 5.10742,15.810547 3.40488,4.118638 7.71291,6.177735 12.92187,6.177735 2.97292,0 5.59011,-0.588872 7.85157,-1.765625 2.26145,-1.176754 4.33258,-3.018393 6.21289,-5.525391 l 0,2.955078 c 0,4.195384 -1.04337,7.278263 -3.12696,9.248047 -2.08358,1.969784 -5.35995,2.953125 -9.83203,2.953125 -2.31227,0 -4.61353,-0.344453 -6.90039,-1.035156 -2.28686,-0.665122 -4.62322,-1.688906 -7.01172,-3.070313 l 0,10.707032 c 2.51555,0.844192 5.01768,1.4696 7.50782,1.878906 2.49013,0.409306 5.07027,0.615234 7.73828,0.615234 7.24037,0 12.96396,-1.41665 17.17773,-4.246094 l 0,-55.691406 -5.55273,0 0,6.369141 c -1.88031,-2.532579 -3.95144,-4.3877 -6.21289,-5.564453 -2.26146,-1.176755 -4.87865,-1.765625 -7.85157,-1.765625 z m 5.06836,9.90039 c 2.84587,0 5.05743,1.048794 6.63282,3.146485 1.57539,2.097691 2.36328,5.065102 2.36328,8.902343 0,3.811659 -0.78789,6.767543 -2.36328,8.865235 -1.57539,2.097691 -3.78695,3.146484 -6.63282,3.146484 -2.9221,0 -5.14535,-1.010303 -6.66992,-3.03125 -1.52457,-2.046528 -2.28711,-5.040902 -2.28711,-8.980469 0,-3.837241 0.78789,-6.804652 2.36328,-8.902343 1.57539,-2.097691 3.77328,-3.146485 6.59375,-3.146485 z m -53.66406,14.697266 7.08789,0 0,1.572265 c 0,2.788395 -0.87564,5.116919 -2.62891,6.984376 -1.75326,1.841875 -3.9141,2.763671 -6.480464,2.763671 -2.058174,0 -3.671004,-0.486883 -4.839844,-1.458984 -1.14343,-0.997683 -1.714844,-2.36592 -1.714844,-4.105469 0,-1.893039 0.711831,-3.324774 2.134766,-4.296875 1.448345,-0.972101 3.595536,-1.458984 6.441406,-1.458984 z"
         style="opacity:1;fill:#ffffff;fill-opacity:1;stroke:none;stroke-width:2.79999995;stroke-linecap:round;stroke-miterlimit:4;stroke-dasharray:none;stroke-opacity:1"
         inkscape:connector-curvature="0" />
    </g>
    <g
       transform="scale(0.99663169,1.0033797)"
       style="font-style:normal;font-variant:normal;font-weight:bold;font-stretch:normal;font-size:78.32198334px;line-height:125%;font-family:'Trebuchet MS';-inkscape-font-specification:'Trebuchet MS Bold';letter-spacing:0px;word-spacing:0px;fill:#ffffff;fill-opacity:1;stroke:none;stroke-width:1px;stroke-linecap:butt;stroke-linejoin:miter;stroke-opacity:1"
       id="text3386" />
    <g
       transform="matrix(0.375,0,0,0.375,243.50973,219.11446)"
       id="xxicon48"
       inkscape:label="#g4463">
      <rect
         y="-22.150738"
         x="39.901028"
         height="128"
         width="128"
         id="rect4465"
         style="opacity:1;fill:#f2f2f2;fill-opacity:1;stroke:none;stroke-width:2.79999995;stroke-linecap:round;stroke-miterlimit:4;stroke-dasharray:none;stroke-opacity:1" />
      <rect
         transform="matrix(0.93227343,-0.36175442,0.36175442,0.93227343,0,0)"
         rx="14.999999"
         ry="14.999999"
         y="37.758602"
         x="25.874102"
         height="81.242088"
         width="112.48904"
         id="rect4467"
         style="opacity:1;fill:#c83737;fill-opacity:1;stroke:none;stroke-width:2.79999995;stroke-linecap:round;stroke-miterlimit:4;stroke-dasharray:none;stroke-opacity:1" />
      <path
         inkscape:connector-curvature="0"
         style="font-style:normal;font-variant:normal;font-weight:bold;font-stretch:normal;font-size:78.32198334px;line-height:125%;font-family:'Trebuchet MS';-inkscape-font-specification:'Trebuchet MS Bold';letter-spacing:0px;word-spacing:0px;opacity:1;fill:#c83737;fill-opacity:1;stroke:none;stroke-width:1px;stroke-linecap:butt;stroke-linejoin:miter;stroke-opacity:1"
         d="m 47.779297,6.0742188 c -1.886407,-0.053829 -3.600878,0.3405093 -4.865235,1.9726562 -0.821739,3.590961 1.652996,8.442713 -2.808593,10.644531 -0.07028,0.03479 -0.13486,0.06183 -0.205078,0.0957 l 0,14.039063 c 0.289931,-0.06957 0.594265,-0.170509 0.916015,-0.308594 2.739596,0.04432 1.153392,4.86594 1.791016,6.515625 -0.381626,8.327436 -1.7674,19.833469 6.74414,24.736328 7.462834,3.262222 15.808903,1.473112 23.654297,1.707031 -1.165847,-4.586761 2.300509,-10.300131 -1.792968,-14.060546 -3.453189,0.03468 -10.12861,2.477881 -11.365235,-2.238282 2.37008,-5.318038 -2.951875,-12.511136 1.986328,-16.5625 4.401248,-0.275127 10.480562,1.727472 13.226563,-3.191406 C 73.014305,26.19013 77.019872,20.046969 71.640625,18.724606 67.866493,17.164837 61.002538,21.3848 59.757812,16.068356 59.834832,13.136927 61.856087,6.4259832 57.345703,6.4179658 54.543789,7.4980852 50.923309,6.1639305 47.779297,6.0742158 Z M 97.568359,17.640625 c -6.196924,0.267482 -12.530682,0.667779 -18.359375,2.986328 0.89899,4.638822 -2.171372,10.075119 1.326172,14.123047 7.092035,-3.342462 17.40898,-6.904727 23.841794,-1.027344 -4.51922,1.455806 -9.735211,-0.635213 -14.468747,1.033203 -8.059384,1.041583 -15.32564,7.776502 -14.75,16.263672 -0.02963,11.168559 12.776969,18.723251 22.921875,15.113281 2.381262,-0.107026 5.301982,-3.140598 6.689452,-3.066406 1.29849,5.340036 7.81451,1.972405 11.42774,2.423828 2.694,-0.301068 6.87132,0.945194 6.34961,-3.021484 0.26184,-7.248948 -0.541,-14.482136 0.14062,-21.730469 0.45802,-8.957935 -3.402,-19.738104 -13.14453,-21.78125 -3.87602,-1.150139 -7.95555,-1.35423 -11.974611,-1.316406 z m 51.121091,0.07617 c -0.45651,-0.007 -0.91348,-0.0024 -1.36914,0.01367 -13.74674,0.470618 -21.32338,16.413201 -18.82617,28.654297 0.70073,12.999908 15.83581,23.99516 28.02734,17.552734 1.78117,-0.541863 5.08865,-4.314491 3.34375,-0.412109 -3.06572,8.346474 -14.03735,6.554059 -20.5039,3.755859 -4.83791,-2.936819 -6.70485,-3.226653 -5.67383,2.722656 -1.23025,4.032306 -1.06802,10.874659 4.60938,10.998047 9.36953,2.482604 21.13133,2.722433 29.60351,-2.416015 l 0,-60.146485 c -3.05781,-0.189918 -5.93119,0.0854 -7.39648,2.744141 -2.32121,0.455458 -4.85633,-3.021792 -7.73829,-3.019532 -1.3384,-0.294281 -2.70662,-0.426323 -4.07617,-0.447265 z m 4.4961,13.888672 c 8.58866,0.736815 9.37042,13.877526 4.10547,18.779297 -5.55199,4.082698 -11.8341,-1.937369 -11.05469,-7.863282 0.0839,-4.301822 1.31486,-11.10696 6.94922,-10.916015 z M 103.01758,45.97656 c 4.13946,1.678593 -0.73054,7.69244 -3.832033,7.5 -3.984487,1.839124 -8.688035,-3.803666 -4.355469,-6.310546 2.564643,-1.103135 5.465652,-0.879848 8.187502,-1.189454 z"
         id="path4469" />
      <path
         inkscape:connector-curvature="0"
         style="opacity:1;fill:#ffffff;fill-opacity:1;stroke:none;stroke-width:2.79999995;stroke-linecap:round;stroke-miterlimit:4;stroke-dasharray:none;stroke-opacity:1"
         d="m 44.458984,8.4707031 0,12.2031249 -4.558593,0 0,9.822266 4.558593,0 0,18.226562 c 0,5.4233 1.117474,9.274019 3.353516,11.550782 2.261451,2.251181 6.085829,3.376953 11.472656,3.376953 l 11.701172,0 0,-9.824219 -7.013672,0 c -2.337679,0 -3.899803,-0.344453 -4.6875,-1.035156 -0.787696,-0.716286 -1.18164,-2.072995 -1.18164,-4.06836 l 0,-18.226562 14.064453,0 0,-9.822266 -14.064453,0 0,-12.2031249 -13.644532,0 z M 98.734375,19.636719 c -2.947509,0 -5.896241,0.192448 -8.84375,0.576172 -2.947509,0.358143 -5.880635,0.895043 -8.802734,1.611328 l 0,10.476562 c 2.159812,-1.176754 4.496172,-2.060061 7.011718,-2.648437 2.515547,-0.588377 5.234151,-0.882813 8.15625,-0.882813 3.608161,0 6.264361,0.511892 7.966801,1.535157 1.70244,0.997683 2.55273,2.583376 2.55273,4.757812 l 0,1.074219 -8.041015,0 c -7.368772,0 -12.780627,1.177742 -16.236328,3.53125 -3.430291,2.353507 -5.146485,6.050267 -5.146485,11.089843 0,4.14422 1.372955,7.519583 4.117188,10.128907 2.769642,2.583742 6.363893,3.876953 10.785156,3.876953 3.277834,0 6.060794,-0.588871 8.347654,-1.765625 2.28686,-1.202335 4.34434,-3.107473 6.17383,-5.716797 l 0,6.369141 13.75977,0 0,-24.519532 c 0,-6.881451 -1.71424,-11.844461 -5.14454,-14.888671 -3.40487,-3.069793 -8.95715,-4.605469 -16.656245,-4.605469 z m 49.548825,0.07617 c -5.20896,0 -9.51699,2.061048 -12.92187,6.179687 -3.40489,4.093056 -5.10742,9.348548 -5.10742,15.769531 0,6.395401 1.70253,11.666328 5.10742,15.810547 3.40488,4.118638 7.71291,6.177735 12.92187,6.177735 2.97292,0 5.59011,-0.588872 7.85157,-1.765625 2.26145,-1.176754 4.33258,-3.018393 6.21289,-5.525391 l 0,2.955078 c 0,4.195384 -1.04337,7.278263 -3.12696,9.248047 -2.08358,1.969784 -5.35995,2.953125 -9.83203,2.953125 -2.31227,0 -4.61353,-0.344453 -6.90039,-1.035156 -2.28686,-0.665122 -4.62322,-1.688906 -7.01172,-3.070313 l 0,10.707032 c 2.51555,0.844192 5.01768,1.4696 7.50782,1.878906 2.49013,0.409306 5.07027,0.615234 7.73828,0.615234 7.24037,0 12.96396,-1.41665 17.17773,-4.246094 l 0,-55.691406 -5.55273,0 0,6.369141 c -1.88031,-2.532579 -3.95144,-4.3877 -6.21289,-5.564453 -2.26146,-1.176755 -4.87865,-1.765625 -7.85157,-1.765625 z m 5.06836,9.90039 c 2.84587,0 5.05743,1.048794 6.63282,3.146485 1.57539,2.097691 2.36328,5.065102 2.36328,8.902343 0,3.811659 -0.78789,6.767543 -2.36328,8.865235 -1.57539,2.097691 -3.78695,3.146484 -6.63282,3.146484 -2.9221,0 -5.14535,-1.010303 -6.66992,-3.03125 -1.52457,-2.046528 -2.28711,-5.040902 -2.28711,-8.980469 0,-3.837241 0.78789,-6.804652 2.36328,-8.902343 1.57539,-2.097691 3.77328,-3.146485 6.59375,-3.146485 z m -53.66406,14.697266 7.08789,0 0,1.572265 c 0,2.788395 -0.87564,5.116919 -2.62891,6.984376 -1.75326,1.841875 -3.9141,2.763671 -6.480464,2.763671 -2.058174,0 -3.671004,-0.486883 -4.839844,-1.458984 -1.14343,-0.997683 -1.714844,-2.36592 -1.714844,-4.105469 0,-1.893039 0.711831,-3.324774 2.134766,-4.296875 1.448345,-0.972101 3.595536,-1.458984 6.441406,-1.458984 z"
         id="path4471" />
    </g>
    <g
       id="xxicon16"
       transform="matrix(0.125,0,0,0.125,427.42639,245.57677)"
       inkscape:label="#g4473">
      <rect
         style="opacity:1;fill:#f2f2f2;fill-opacity:1;stroke:none;stroke-width:2.79999995;stroke-linecap:round;stroke-miterlimit:4;stroke-dasharray:none;stroke-opacity:1"
         id="rect4475"
         width="128"
         height="128"
         x="39.901028"
         y="-22.150738" />
      <rect
         style="opacity:1;fill:#c83737;fill-opacity:1;stroke:none;stroke-width:2.79999995;stroke-linecap:round;stroke-miterlimit:4;stroke-dasharray:none;stroke-opacity:1"
         id="rect4477"
         width="112.48904"
         height="81.242088"
         x="25.874102"
         y="37.758602"
         ry="14.999999"
         rx="14.999999"
         transform="matrix(0.93227343,-0.36175442,0.36175442,0.93227343,0,0)" />
      <path
         id="path4479"
         d="m 47.779297,6.0742188 c -1.886407,-0.053829 -3.600878,0.3405093 -4.865235,1.9726562 -0.821739,3.590961 1.652996,8.442713 -2.808593,10.644531 -0.07028,0.03479 -0.13486,0.06183 -0.205078,0.0957 l 0,14.039063 c 0.289931,-0.06957 0.594265,-0.170509 0.916015,-0.308594 2.739596,0.04432 1.153392,4.86594 1.791016,6.515625 -0.381626,8.327436 -1.7674,19.833469 6.74414,24.736328 7.462834,3.262222 15.808903,1.473112 23.654297,1.707031 -1.165847,-4.586761 2.300509,-10.300131 -1.792968,-14.060546 -3.453189,0.03468 -10.12861,2.477881 -11.365235,-2.238282 2.37008,-5.318038 -2.951875,-12.511136 1.986328,-16.5625 4.401248,-0.275127 10.480562,1.727472 13.226563,-3.191406 C 73.014305,26.19013 77.019872,20.046969 71.640625,18.724606 67.866493,17.164837 61.002538,21.3848 59.757812,16.068356 59.834832,13.136927 61.856087,6.4259832 57.345703,6.4179658 54.543789,7.4980852 50.923309,6.1639305 47.779297,6.0742158 Z M 97.568359,17.640625 c -6.196924,0.267482 -12.530682,0.667779 -18.359375,2.986328 0.89899,4.638822 -2.171372,10.075119 1.326172,14.123047 7.092035,-3.342462 17.40898,-6.904727 23.841794,-1.027344 -4.51922,1.455806 -9.735211,-0.635213 -14.468747,1.033203 -8.059384,1.041583 -15.32564,7.776502 -14.75,16.263672 -0.02963,11.168559 12.776969,18.723251 22.921875,15.113281 2.381262,-0.107026 5.301982,-3.140598 6.689452,-3.066406 1.29849,5.340036 7.81451,1.972405 11.42774,2.423828 2.694,-0.301068 6.87132,0.945194 6.34961,-3.021484 0.26184,-7.248948 -0.541,-14.482136 0.14062,-21.730469 0.45802,-8.957935 -3.402,-19.738104 -13.14453,-21.78125 -3.87602,-1.150139 -7.95555,-1.35423 -11.974611,-1.316406 z m 51.121091,0.07617 c -0.45651,-0.007 -0.91348,-0.0024 -1.36914,0.01367 -13.74674,0.470618 -21.32338,16.413201 -18.82617,28.654297 0.70073,12.999908 15.83581,23.99516 28.02734,17.552734 1.78117,-0.541863 5.08865,-4.314491 3.34375,-0.412109 -3.06572,8.346474 -14.03735,6.554059 -20.5039,3.755859 -4.83791,-2.936819 -6.70485,-3.226653 -5.67383,2.722656 -1.23025,4.032306 -1.06802,10.874659 4.60938,10.998047 9.36953,2.482604 21.13133,2.722433 29.60351,-2.416015 l 0,-60.146485 c -3.05781,-0.189918 -5.93119,0.0854 -7.39648,2.744141 -2.32121,0.455458 -4.85633,-3.021792 -7.73829,-3.019532 -1.3384,-0.294281 -2.70662,-0.426323 -4.07617,-0.447265 z m 4.4961,13.888672 c 8.58866,0.736815 9.37042,13.877526 4.10547,18.779297 -5.55199,4.082698 -11.8341,-1.937369 -11.05469,-7.863282 0.0839,-4.301822 1.31486,-11.10696 6.94922,-10.916015 z M 103.01758,45.97656 c 4.13946,1.678593 -0.73054,7.69244 -3.832033,7.5 -3.984487,1.839124 -8.688035,-3.803666 -4.355469,-6.310546 2.564643,-1.103135 5.465652,-0.879848 8.187502,-1.189454 z"
         style="font-style:normal;font-variant:normal;font-weight:bold;font-stretch:normal;font-size:78.32198334px;line-height:125%;font-family:'Trebuchet MS';-inkscape-font-specification:'Trebuchet MS Bold';letter-spacing:0px;word-spacing:0px;opacity:1;fill:#c83737;fill-opacity:1;stroke:none;stroke-width:1px;stroke-linecap:butt;stroke-linejoin:miter;stroke-opacity:1"
         inkscape:connector-curvature="0" />
      <path
         id="path4481"
         d="m 44.458984,8.4707031 0,12.2031249 -4.558593,0 0,9.822266 4.558593,0 0,18.226562 c 0,5.4233 1.117474,9.274019 3.353516,11.550782 2.261451,2.251181 6.085829,3.376953 11.472656,3.376953 l 11.701172,0 0,-9.824219 -7.013672,0 c -2.337679,0 -3.899803,-0.344453 -4.6875,-1.035156 -0.787696,-0.716286 -1.18164,-2.072995 -1.18164,-4.06836 l 0,-18.226562 14.064453,0 0,-9.822266 -14.064453,0 0,-12.2031249 -13.644532,0 z M 98.734375,19.636719 c -2.947509,0 -5.896241,0.192448 -8.84375,0.576172 -2.947509,0.358143 -5.880635,0.895043 -8.802734,1.611328 l 0,10.476562 c 2.159812,-1.176754 4.496172,-2.060061 7.011718,-2.648437 2.515547,-0.588377 5.234151,-0.882813 8.15625,-0.882813 3.608161,0 6.264361,0.511892 7.966801,1.535157 1.70244,0.997683 2.55273,2.583376 2.55273,4.757812 l 0,1.074219 -8.041015,0 c -7.368772,0 -12.780627,1.177742 -16.236328,3.53125 -3.430291,2.353507 -5.146485,6.050267 -5.146485,11.089843 0,4.14422 1.372955,7.519583 4.117188,10.128907 2.769642,2.583742 6.363893,3.876953 10.785156,3.876953 3.277834,0 6.060794,-0.588871 8.347654,-1.765625 2.28686,-1.202335 4.34434,-3.107473 6.17383,-5.716797 l 0,6.369141 13.75977,0 0,-24.519532 c 0,-6.881451 -1.71424,-11.844461 -5.14454,-14.888671 -3.40487,-3.069793 -8.95715,-4.605469 -16.656245,-4.605469 z m 49.548825,0.07617 c -5.20896,0 -9.51699,2.061048 -12.92187,6.179687 -3.40489,4.093056 -5.10742,9.348548 -5.10742,15.769531 0,6.395401 1.70253,11.666328 5.10742,15.810547 3.40488,4.118638 7.71291,6.177735 12.92187,6.177735 2.97292,0 5.59011,-0.588872 7.85157,-1.765625 2.26145,-1.176754 4.33258,-3.018393 6.21289,-5.525391 l 0,2.955078 c 0,4.195384 -1.04337,7.278263 -3.12696,9.248047 -2.08358,1.969784 -5.35995,2.953125 -9.83203,2.953125 -2.31227,0 -4.61353,-0.344453 -6.90039,-1.035156 -2.28686,-0.665122 -4.62322,-1.688906 -7.01172,-3.070313 l 0,10.707032 c 2.51555,0.844192 5.01768,1.4696 7.50782,1.878906 2.49013,0.409306 5.07027,0.615234 7.73828,0.615234 7.24037,0 12.96396,-1.41665 17.17773,-4.246094 l 0,-55.691406 -5.55273,0 0,6.369141 c -1.88031,-2.532579 -3.95144,-4.3877 -6.21289,-5.564453 -2.26146,-1.176755 -4.87865,-1.765625 -7.85157,-1.765625 z m 5.06836,9.90039 c 2.84587,0 5.05743,1.048794 6.63282,3.146485 1.57539,2.097691 2.36328,5.065102 2.36328,8.902343 0,3.811659 -0.78789,6.767543 -2.36328,8.865235 -1.57539,2.097691 -3.78695,3.146484 -6.63282,3.146484 -2.9221,0 -5.14535,-1.010303 -6.66992,-3.03125 -1.52457,-2.046528 -2.28711,-5.040902 -2.28711,-8.980469 0,-3.837241 0.78789,-6.804652 2.36328,-8.902343 1.57539,-2.097691 3.77328,-3.146485 6.59375,-3.146485 z m -53.66406,14.697266 7.08789,0 0,1.572265 c 0,2.788395 -0.87564,5.116919 -2.62891,6.984376 -1.75326,1.841875 -3.9141,2.763671 -6.480464,2.763671 -2.058174,0 -3.671004,-0.486883 -4.839844,-1.458984 -1.14343,-0.997683 -1.714844,-2.36592 -1.714844,-4.105469 0,-1.893039 0.711831,-3.324774 2.134766,-4.296875 1.448345,-0.972101 3.595536,-1.458984 6.441406,-1.458984 z"
         style="opacity:1;fill:#ffffff;fill-opacity:1;stroke:none;stroke-width:2.79999995;stroke-linecap:round;stroke-miterlimit:4;stroke-dasharray:none;stroke-opacity:1"
         inkscape:connector-curvature="0" />
    </g>
    <g
       transform="matrix(0.296875,0,0,0.296875,317.60754,227.38393)"
       id="xxicon38"
       inkscape:label="#g4483">
      <rect
         y="-22.150738"
         x="39.901028"
         height="128"
         width="128"
         id="rect4485"
         style="opacity:1;fill:#f2f2f2;fill-opacity:1;stroke:none;stroke-width:2.79999995;stroke-linecap:round;stroke-miterlimit:4;stroke-dasharray:none;stroke-opacity:1" />
      <rect
         transform="matrix(0.93227343,-0.36175442,0.36175442,0.93227343,0,0)"
         rx="14.999999"
         ry="14.999999"
         y="37.758602"
         x="25.874102"
         height="81.242088"
         width="112.48904"
         id="rect4487"
         style="opacity:1;fill:#c83737;fill-opacity:1;stroke:none;stroke-width:2.79999995;stroke-linecap:round;stroke-miterlimit:4;stroke-dasharray:none;stroke-opacity:1" />
      <path
         inkscape:connector-curvature="0"
         style="font-style:normal;font-variant:normal;font-weight:bold;font-stretch:normal;font-size:78.32198334px;line-height:125%;font-family:'Trebuchet MS';-inkscape-font-specification:'Trebuchet MS Bold';letter-spacing:0px;word-spacing:0px;opacity:1;fill:#c83737;fill-opacity:1;stroke:none;stroke-width:1px;stroke-linecap:butt;stroke-linejoin:miter;stroke-opacity:1"
         d="m 47.779297,6.0742188 c -1.886407,-0.053829 -3.600878,0.3405093 -4.865235,1.9726562 -0.821739,3.590961 1.652996,8.442713 -2.808593,10.644531 -0.07028,0.03479 -0.13486,0.06183 -0.205078,0.0957 l 0,14.039063 c 0.289931,-0.06957 0.594265,-0.170509 0.916015,-0.308594 2.739596,0.04432 1.153392,4.86594 1.791016,6.515625 -0.381626,8.327436 -1.7674,19.833469 6.74414,24.736328 7.462834,3.262222 15.808903,1.473112 23.654297,1.707031 -1.165847,-4.586761 2.300509,-10.300131 -1.792968,-14.060546 -3.453189,0.03468 -10.12861,2.477881 -11.365235,-2.238282 2.37008,-5.318038 -2.951875,-12.511136 1.986328,-16.5625 4.401248,-0.275127 10.480562,1.727472 13.226563,-3.191406 C 73.014305,26.19013 77.019872,20.046969 71.640625,18.724606 67.866493,17.164837 61.002538,21.3848 59.757812,16.068356 59.834832,13.136927 61.856087,6.4259832 57.345703,6.4179658 54.543789,7.4980852 50.923309,6.1639305 47.779297,6.0742158 Z M 97.568359,17.640625 c -6.196924,0.267482 -12.530682,0.667779 -18.359375,2.986328 0.89899,4.638822 -2.171372,10.075119 1.326172,14.123047 7.092035,-3.342462 17.40898,-6.904727 23.841794,-1.027344 -4.51922,1.455806 -9.735211,-0.635213 -14.468747,1.033203 -8.059384,1.041583 -15.32564,7.776502 -14.75,16.263672 -0.02963,11.168559 12.776969,18.723251 22.921875,15.113281 2.381262,-0.107026 5.301982,-3.140598 6.689452,-3.066406 1.29849,5.340036 7.81451,1.972405 11.42774,2.423828 2.694,-0.301068 6.87132,0.945194 6.34961,-3.021484 0.26184,-7.248948 -0.541,-14.482136 0.14062,-21.730469 0.45802,-8.957935 -3.402,-19.738104 -13.14453,-21.78125 -3.87602,-1.150139 -7.95555,-1.35423 -11.974611,-1.316406 z m 51.121091,0.07617 c -0.45651,-0.007 -0.91348,-0.0024 -1.36914,0.01367 -13.74674,0.470618 -21.32338,16.413201 -18.82617,28.654297 0.70073,12.999908 15.83581,23.99516 28.02734,17.552734 1.78117,-0.541863 5.08865,-4.314491 3.34375,-0.412109 -3.06572,8.346474 -14.03735,6.554059 -20.5039,3.755859 -4.83791,-2.936819 -6.70485,-3.226653 -5.67383,2.722656 -1.23025,4.032306 -1.06802,10.874659 4.60938,10.998047 9.36953,2.482604 21.13133,2.722433 29.60351,-2.416015 l 0,-60.146485 c -3.05781,-0.189918 -5.93119,0.0854 -7.39648,2.744141 -2.32121,0.455458 -4.85633,-3.021792 -7.73829,-3.019532 -1.3384,-0.294281 -2.70662,-0.426323 -4.07617,-0.447265 z m 4.4961,13.888672 c 8.58866,0.736815 9.37042,13.877526 4.10547,18.779297 -5.55199,4.082698 -11.8341,-1.937369 -11.05469,-7.863282 0.0839,-4.301822 1.31486,-11.10696 6.94922,-10.916015 z M 103.01758,45.97656 c 4.13946,1.678593 -0.73054,7.69244 -3.832033,7.5 -3.984487,1.839124 -8.688035,-3.803666 -4.355469,-6.310546 2.564643,-1.103135 5.465652,-0.879848 8.187502,-1.189454 z"
         id="path4489" />
      <path
         inkscape:connector-curvature="0"
         style="opacity:1;fill:#ffffff;fill-opacity:1;stroke:none;stroke-width:2.79999995;stroke-linecap:round;stroke-miterlimit:4;stroke-dasharray:none;stroke-opacity:1"
         d="m 44.458984,8.4707031 0,12.2031249 -4.558593,0 0,9.822266 4.558593,0 0,18.226562 c 0,5.4233 1.117474,9.274019 3.353516,11.550782 2.261451,2.251181 6.085829,3.376953 11.472656,3.376953 l 11.701172,0 0,-9.824219 -7.013672,0 c -2.337679,0 -3.899803,-0.344453 -4.6875,-1.035156 -0.787696,-0.716286 -1.18164,-2.072995 -1.18164,-4.06836 l 0,-18.226562 14.064453,0 0,-9.822266 -14.064453,0 0,-12.2031249 -13.644532,0 z M 98.734375,19.636719 c -2.947509,0 -5.896241,0.192448 -8.84375,0.576172 -2.947509,0.358143 -5.880635,0.895043 -8.802734,1.611328 l 0,10.476562 c 2.159812,-1.176754 4.496172,-2.060061 7.011718,-2.648437 2.515547,-0.588377 5.234151,-0.882813 8.15625,-0.882813 3.608161,0 6.264361,0.511892 7.966801,1.535157 1.70244,0.997683 2.55273,2.583376 2.55273,4.757812 l 0,1.074219 -8.041015,0 c -7.368772,0 -12.780627,1.177742 -16.236328,3.53125 -3.430291,2.353507 -5.146485,6.050267 -5.146485,11.089843 0,4.14422 1.372955,7.519583 4.117188,10.128907 2.769642,2.583742 6.363893,3.876953 10.785156,3.876953 3.277834,0 6.060794,-0.588871 8.347654,-1.765625 2.28686,-1.202335 4.34434,-3.107473 6.17383,-5.716797 l 0,6.369141 13.75977,0 0,-24.519532 c 0,-6.881451 -1.71424,-11.844461 -5.14454,-14.888671 -3.40487,-3.069793 -8.95715,-4.605469 -16.656245,-4.605469 z m 49.548825,0.07617 c -5.20896,0 -9.51699,2.061048 -12.92187,6.179687 -3.40489,4.093056 -5.10742,9.348548 -5.10742,15.769531 0,6.395401 1.70253,11.666328 5.10742,15.810547 3.40488,4.118638 7.71291,6.177735 12.92187,6.177735 2.97292,0 5.59011,-0.588872 7.85157,-1.765625 2.26145,-1.176754 4.33258,-3.018393 6.21289,-5.525391 l 0,2.955078 c 0,4.195384 -1.04337,7.278263 -3.12696,9.248047 -2.08358,1.969784 -5.35995,2.953125 -9.83203,2.953125 -2.31227,0 -4.61353,-0.344453 -6.90039,-1.035156 -2.28686,-0.665122 -4.62322,-1.688906 -7.01172,-3.070313 l 0,10.707032 c 2.51555,0.844192 5.01768,1.4696 7.50782,1.878906 2.49013,0.409306 5.07027,0.615234 7.73828,0.615234 7.24037,0 12.96396,-1.41665 17.17773,-4.246094 l 0,-55.691406 -5.55273,0 0,6.369141 c -1.88031,-2.532579 -3.95144,-4.3877 -6.21289,-5.564453 -2.26146,-1.176755 -4.87865,-1.765625 -7.85157,-1.765625 z m 5.06836,9.90039 c 2.84587,0 5.05743,1.048794 6.63282,3.146485 1.57539,2.097691 2.36328,5.065102 2.36328,8.902343 0,3.811659 -0.78789,6.767543 -2.36328,8.865235 -1.57539,2.097691 -3.78695,3.146484 -6.63282,3.146484 -2.9221,0 -5.14535,-1.010303 -6.66992,-3.03125 -1.52457,-2.046528 -2.28711,-5.040902 -2.28711,-8.980469 0,-3.837241 0.78789,-6.804652 2.36328,-8.902343 1.57539,-2.097691 3.77328,-3.146485 6.59375,-3.146485 z m -53.66406,14.697266 7.08789,0 0,1.572265 c 0,2.788395 -0.87564,5.116919 -2.62891,6.984376 -1.75326,1.841875 -3.9141,2.763671 -6.480464,2.763671 -2.058174,0 -3.671004,-0.486883 -4.839844,-1.458984 -1.14343,-0.997683 -1.714844,-2.36592 -1.714844,-4.105469 0,-1.893039 0.711831,-3.324774 2.134766,-4.296875 1.448345,-0.972101 3.595536,-1.458984 6.441406,-1.458984 z"
         id="path4491" />
    </g>
    <g
       id="xxicon19"
       transform="matrix(0.1484375,0,0,0.1484375,384.51079,243.09593)"
       inkscape:label="#g4493">
      <rect
         style="opacity:1;fill:#f2f2f2;fill-opacity:1;stroke:none;stroke-width:2.79999995;stroke-linecap:round;stroke-miterlimit:4;stroke-dasharray:none;stroke-opacity:1"
         id="rect4495"
         width="128"
         height="128"
         x="39.901028"
         y="-22.150738" />
      <rect
         style="opacity:1;fill:#c83737;fill-opacity:1;stroke:none;stroke-width:2.79999995;stroke-linecap:round;stroke-miterlimit:4;stroke-dasharray:none;stroke-opacity:1"
         id="rect4497"
         width="112.48904"
         height="81.242088"
         x="25.874102"
         y="37.758602"
         ry="14.999999"
         rx="14.999999"
         transform="matrix(0.93227343,-0.36175442,0.36175442,0.93227343,0,0)" />
      <path
         id="path4499"
         d="m 47.779297,6.0742188 c -1.886407,-0.053829 -3.600878,0.3405093 -4.865235,1.9726562 -0.821739,3.590961 1.652996,8.442713 -2.808593,10.644531 -0.07028,0.03479 -0.13486,0.06183 -0.205078,0.0957 l 0,14.039063 c 0.289931,-0.06957 0.594265,-0.170509 0.916015,-0.308594 2.739596,0.04432 1.153392,4.86594 1.791016,6.515625 -0.381626,8.327436 -1.7674,19.833469 6.74414,24.736328 7.462834,3.262222 15.808903,1.473112 23.654297,1.707031 -1.165847,-4.586761 2.300509,-10.300131 -1.792968,-14.060546 -3.453189,0.03468 -10.12861,2.477881 -11.365235,-2.238282 2.37008,-5.318038 -2.951875,-12.511136 1.986328,-16.5625 4.401248,-0.275127 10.480562,1.727472 13.226563,-3.191406 C 73.014305,26.19013 77.019872,20.046969 71.640625,18.724606 67.866493,17.164837 61.002538,21.3848 59.757812,16.068356 59.834832,13.136927 61.856087,6.4259832 57.345703,6.4179658 54.543789,7.4980852 50.923309,6.1639305 47.779297,6.0742158 Z M 97.568359,17.640625 c -6.196924,0.267482 -12.530682,0.667779 -18.359375,2.986328 0.89899,4.638822 -2.171372,10.075119 1.326172,14.123047 7.092035,-3.342462 17.40898,-6.904727 23.841794,-1.027344 -4.51922,1.455806 -9.735211,-0.635213 -14.468747,1.033203 -8.059384,1.041583 -15.32564,7.776502 -14.75,16.263672 -0.02963,11.168559 12.776969,18.723251 22.921875,15.113281 2.381262,-0.107026 5.301982,-3.140598 6.689452,-3.066406 1.29849,5.340036 7.81451,1.972405 11.42774,2.423828 2.694,-0.301068 6.87132,0.945194 6.34961,-3.021484 0.26184,-7.248948 -0.541,-14.482136 0.14062,-21.730469 0.45802,-8.957935 -3.402,-19.738104 -13.14453,-21.78125 -3.87602,-1.150139 -7.95555,-1.35423 -11.974611,-1.316406 z m 51.121091,0.07617 c -0.45651,-0.007 -0.91348,-0.0024 -1.36914,0.01367 -13.74674,0.470618 -21.32338,16.413201 -18.82617,28.654297 0.70073,12.999908 15.83581,23.99516 28.02734,17.552734 1.78117,-0.541863 5.08865,-4.314491 3.34375,-0.412109 -3.06572,8.346474 -14.03735,6.554059 -20.5039,3.755859 -4.83791,-2.936819 -6.70485,-3.226653 -5.67383,2.722656 -1.23025,4.032306 -1.06802,10.874659 4.60938,10.998047 9.36953,2.482604 21.13133,2.722433 29.60351,-2.416015 l 0,-60.146485 c -3.05781,-0.189918 -5.93119,0.0854 -7.39648,2.744141 -2.32121,0.455458 -4.85633,-3.021792 -7.73829,-3.019532 -1.3384,-0.294281 -2.70662,-0.426323 -4.07617,-0.447265 z m 4.4961,13.888672 c 8.58866,0.736815 9.37042,13.877526 4.10547,18.779297 -5.55199,4.082698 -11.8341,-1.937369 -11.05469,-7.863282 0.0839,-4.301822 1.31486,-11.10696 6.94922,-10.916015 z M 103.01758,45.97656 c 4.13946,1.678593 -0.73054,7.69244 -3.832033,7.5 -3.984487,1.839124 -8.688035,-3.803666 -4.355469,-6.310546 2.564643,-1.103135 5.465652,-0.879848 8.187502,-1.189454 z"
         style="font-style:normal;font-variant:normal;font-weight:bold;font-stretch:normal;font-size:78.32198334px;line-height:125%;font-family:'Trebuchet MS';-inkscape-font-specification:'Trebuchet MS Bold';letter-spacing:0px;word-spacing:0px;opacity:1;fill:#c83737;fill-opacity:1;stroke:none;stroke-width:1px;stroke-linecap:butt;stroke-linejoin:miter;stroke-opacity:1"
         inkscape:connector-curvature="0" />
      <path
         id="path4501"
         d="m 44.458984,8.4707031 0,12.2031249 -4.558593,0 0,9.822266 4.558593,0 0,18.226562 c 0,5.4233 1.117474,9.274019 3.353516,11.550782 2.261451,2.251181 6.085829,3.376953 11.472656,3.376953 l 11.701172,0 0,-9.824219 -7.013672,0 c -2.337679,0 -3.899803,-0.344453 -4.6875,-1.035156 -0.787696,-0.716286 -1.18164,-2.072995 -1.18164,-4.06836 l 0,-18.226562 14.064453,0 0,-9.822266 -14.064453,0 0,-12.2031249 -13.644532,0 z M 98.734375,19.636719 c -2.947509,0 -5.896241,0.192448 -8.84375,0.576172 -2.947509,0.358143 -5.880635,0.895043 -8.802734,1.611328 l 0,10.476562 c 2.159812,-1.176754 4.496172,-2.060061 7.011718,-2.648437 2.515547,-0.588377 5.234151,-0.882813 8.15625,-0.882813 3.608161,0 6.264361,0.511892 7.966801,1.535157 1.70244,0.997683 2.55273,2.583376 2.55273,4.757812 l 0,1.074219 -8.041015,0 c -7.368772,0 -12.780627,1.177742 -16.236328,3.53125 -3.430291,2.353507 -5.146485,6.050267 -5.146485,11.089843 0,4.14422 1.372955,7.519583 4.117188,10.128907 2.769642,2.583742 6.363893,3.876953 10.785156,3.876953 3.277834,0 6.060794,-0.588871 8.347654,-1.765625 2.28686,-1.202335 4.34434,-3.107473 6.17383,-5.716797 l 0,6.369141 13.75977,0 0,-24.519532 c 0,-6.881451 -1.71424,-11.844461 -5.14454,-14.888671 -3.40487,-3.069793 -8.95715,-4.605469 -16.656245,-4.605469 z m 49.548825,0.07617 c -5.20896,0 -9.51699,2.061048 -12.92187,6.179687 -3.40489,4.093056 -5.10742,9.348548 -5.10742,15.769531 0,6.395401 1.70253,11.666328 5.10742,15.810547 3.40488,4.118638 7.71291,6.177735 12.92187,6.177735 2.97292,0 5.59011,-0.588872 7.85157,-1.765625 2.26145,-1.176754 4.33258,-3.018393 6.21289,-5.525391 l 0,2.955078 c 0,4.195384 -1.04337,7.278263 -3.12696,9.248047 -2.08358,1.969784 -5.35995,2.953125 -9.83203,2.953125 -2.31227,0 -4.61353,-0.344453 -6.90039,-1.035156 -2.28686,-0.665122 -4.62322,-1.688906 -7.01172,-3.070313 l 0,10.707032 c 2.51555,0.844192 5.01768,1.4696 7.50782,1.878906 2.49013,0.409306 5.07027,0.615234 7.73828,0.615234 7.24037,0 12.96396,-1.41665 17.17773,-4.246094 l 0,-55.691406 -5.55273,0 0,6.369141 c -1.88031,-2.532579 -3.95144,-4.3877 -6.21289,-5.564453 -2.26146,-1.176755 -4.87865,-1.765625 -7.85157,-1.765625 z m 5.06836,9.90039 c 2.84587,0 5.05743,1.048794 6.63282,3.146485 1.57539,2.097691 2.36328,5.065102 2.36328,8.902343 0,3.811659 -0.78789,6.767543 -2.36328,8.865235 -1.57539,2.097691 -3.78695,3.146484 -6.63282,3.146484 -2.9221,0 -5.14535,-1.010303 -6.66992,-3.03125 -1.52457,-2.046528 -2.28711,-5.040902 -2.28711,-8.980469 0,-3.837241 0.78789,-6.804652 2.36328,-8.902343 1.57539,-2.097691 3.77328,-3.146485 6.59375,-3.146485 z m -53.66406,14.697266 7.08789,0 0,1.572265 c 0,2.788395 -0.87564,5.116919 -2.62891,6.984376 -1.75326,1.841875 -3.9141,2.763671 -6.480464,2.763671 -2.058174,0 -3.671004,-0.486883 -4.839844,-1.458984 -1.14343,-0.997683 -1.714844,-2.36592 -1.714844,-4.105469 0,-1.893039 0.711831,-3.324774 2.134766,-4.296875 1.448345,-0.972101 3.595536,-1.458984 6.441406,-1.458984 z"
         style="opacity:1;fill:#ffffff;fill-opacity:1;stroke:none;stroke-width:2.79999995;stroke-linecap:round;stroke-miterlimit:4;stroke-dasharray:none;stroke-opacity:1"
         inkscape:connector-curvature="0" />
    </g>
    <g
       id="xxicon38h"
       transform="translate(1.8578125e-5,-2.8571429)"
       inkscape:label="#g4531">
      <rect
         style="opacity:1;fill:#f2f2f2;fill-opacity:1;stroke:none;stroke-width:2.79999995;stroke-linecap:round;stroke-miterlimit:4;stroke-dasharray:none;stroke-opacity:1"
         id="rect4505"
         width="38"
         height="38"
         x="329.45316"
         y="294.37936" />
      <rect
         style="opacity:1;fill:#ffd42a;fill-opacity:1;stroke:none;stroke-width:2.79999995;stroke-linecap:round;stroke-miterlimit:4;stroke-dasharray:none;stroke-opacity:1"
         id="rect4507"
         width="33.395184"
         height="24.118744"
         x="194.90651"
         y="406.67819"
         ry="4.4531245"
         rx="4.4531245"
         transform="matrix(0.93227343,-0.36175441,0.36175441,0.93227343,0,0)" />
      <path
         id="path4509"
         d="m 331.79202,302.75864 c -0.56003,-0.016 -1.06901,0.10109 -1.44437,0.58564 -0.24395,1.06606 0.49074,2.50643 -0.8338,3.16009 -0.0209,0.0103 -0.04,0.0184 -0.0609,0.0284 l 0,4.16785 c 0.0861,-0.0206 0.17642,-0.0506 0.27194,-0.0916 0.81332,0.0131 0.34241,1.44457 0.53171,1.93432 -0.1133,2.47221 -0.5247,5.88806 2.00216,7.3436 2.21553,0.96847 4.69327,0.43733 7.02237,0.50677 -0.34611,-1.36169 0.68297,-3.05785 -0.53228,-4.17422 -1.02517,0.0103 -3.00693,0.73562 -3.37406,-0.66449 0.70362,-1.57879 -0.87634,-3.71424 0.58969,-4.91699 1.30662,-0.0817 3.11142,0.51284 3.92664,-0.94745 -0.60748,-0.96001 0.58167,-2.78376 -1.01529,-3.17633 -1.12044,-0.46306 -3.15818,0.78974 -3.52771,-0.78858 0.0229,-0.87026 0.62293,-2.86258 -0.71609,-2.86496 -0.83182,0.32066 -1.90665,-0.0754 -2.84003,-0.10205 z m 14.78113,3.43378 c -1.83972,0.0794 -3.72005,0.19825 -5.45044,0.88657 0.26688,1.37715 -0.64463,2.99105 0.3937,4.19278 2.10545,-0.9923 5.1683,-2.04984 7.07804,-0.305 -1.34165,0.4322 -2.89014,-0.18858 -4.29541,0.30674 -2.39263,0.30922 -4.5498,2.30864 -4.37891,4.82827 -0.009,3.31567 3.79316,5.55847 6.80493,4.48676 0.70694,-0.0318 1.57403,-0.93237 1.98593,-0.91034 0.38549,1.58532 2.31994,0.58556 3.39261,0.71957 0.79979,-0.0894 2.03993,0.28061 1.88504,-0.897 0.0777,-2.15203 -0.1606,-4.29938 0.0418,-6.45123 0.13598,-2.65939 -1.00997,-5.85975 -3.90228,-6.46631 -1.15069,-0.34145 -2.3618,-0.40204 -3.55496,-0.39081 z m 15.17657,0.0226 c -0.13553,-0.002 -0.27119,-7.1e-4 -0.40646,0.004 -4.08107,0.13972 -6.33038,4.87267 -5.58902,8.50675 0.20803,3.85934 4.70125,7.12356 8.32061,5.21096 0.52879,-0.16086 1.5107,-1.28086 0.99268,-0.12234 -0.91014,2.47786 -4.16734,1.94574 -6.0871,1.11502 -1.43625,-0.87187 -1.9905,-0.95791 -1.68441,0.80829 -0.36523,1.19709 -0.31707,3.22841 1.36841,3.26504 2.78158,0.73703 6.27336,0.80823 8.78854,-0.71725 l 0,-17.85599 c -0.90779,-0.0564 -1.76082,0.0254 -2.19583,0.81467 -0.68911,0.13521 -1.44172,-0.8971 -2.29731,-0.89643 -0.39733,-0.0874 -0.80352,-0.12656 -1.21011,-0.13278 z m 1.33478,4.1232 c 2.54976,0.21874 2.78184,4.11989 1.21881,5.57511 -1.64825,1.21205 -3.51325,-0.57516 -3.28186,-2.33442 0.0249,-1.2771 0.39035,-3.29737 2.06305,-3.24069 z m -14.89362,4.26642 c 1.22891,0.49833 -0.21688,2.28369 -1.13763,2.22656 -1.1829,0.54599 -2.57926,-1.12921 -1.29303,-1.87344 0.76138,-0.32749 1.62261,-0.2612 2.43066,-0.35312 z"
         style="font-style:normal;font-variant:normal;font-weight:bold;font-stretch:normal;font-size:78.32198334px;line-height:125%;font-family:'Trebuchet MS';-inkscape-font-specification:'Trebuchet MS Bold';letter-spacing:0px;word-spacing:0px;opacity:1;fill:#ffcc00;fill-opacity:1;stroke:none;stroke-width:1px;stroke-linecap:butt;stroke-linejoin:miter;stroke-opacity:1"
         inkscape:connector-curvature="0" />
      <path
         id="path4511"
         d="m 330.8063,303.4701 0,3.6228 -1.35333,0 0,2.91599 1.35333,0 0,5.41101 c 0,1.61004 0.33175,2.75322 0.99558,3.42914 0.67136,0.66832 1.80673,1.00253 3.40594,1.00253 l 3.47379,0 0,-2.91657 -2.08219,0 c -0.694,0 -1.15775,-0.10225 -1.3916,-0.30731 -0.23385,-0.21264 -0.3508,-0.61542 -0.3508,-1.20779 l 0,-5.41101 4.17539,0 0,-2.91599 -4.17539,0 0,-3.6228 -4.05072,0 z m 16.11301,3.31491 c -0.87504,0 -1.75045,0.0571 -2.62549,0.17105 -0.87504,0.10633 -1.74581,0.26572 -2.61331,0.47837 l 0,3.11022 c 0.64119,-0.34934 1.3348,-0.61158 2.0816,-0.78625 0.7468,-0.17467 1.55389,-0.26209 2.42139,-0.26209 1.07117,0 1.85973,0.15197 2.36514,0.45575 0.50541,0.29619 0.75784,0.76694 0.75784,1.41248 l 0,0.31891 -2.38717,0 c -2.18761,0 -3.79425,0.34964 -4.82016,1.04834 -1.01837,0.6987 -1.52787,1.79617 -1.52787,3.2923 0,1.23031 0.4076,2.23237 1.2223,3.00701 0.82223,0.76705 1.88928,1.15098 3.20184,1.15098 0.97311,0 1.7993,-0.17483 2.47821,-0.52417 0.67891,-0.35695 1.28972,-0.92254 1.83285,-1.69718 l 0,1.89084 4.08494,0 0,-7.27924 c 0,-2.04293 -0.50892,-3.51632 -1.52729,-4.42007 -1.01082,-0.91135 -2.65915,-1.36725 -4.94482,-1.36725 z m 14.7098,0.0226 c -1.54641,0 -2.82535,0.61188 -3.83618,1.8346 -1.01082,1.21512 -1.51626,2.77535 -1.51626,4.68158 0,1.89863 0.50544,3.46344 1.51626,4.69375 1.01083,1.22272 2.28977,1.83402 3.83618,1.83402 0.88259,0 1.65957,-0.17482 2.33094,-0.52417 0.67137,-0.34935 1.28623,-0.89609 1.84445,-1.64035 l 0,0.87729 c 0,1.2455 -0.30975,2.16073 -0.92831,2.74551 -0.61857,0.58478 -1.59124,0.87671 -2.91889,0.87671 -0.68645,0 -1.36964,-0.10226 -2.04855,-0.30731 -0.67891,-0.19746 -1.37252,-0.5014 -2.08161,-0.9115 l 0,3.17865 c 0.74681,0.25062 1.48963,0.43629 2.22889,0.5578 0.73926,0.12151 1.50523,0.18265 2.2973,0.18265 2.14948,0 3.84868,-0.42057 5.09964,-1.26056 l 0,-16.53339 -1.64847,0 0,1.89084 c -0.55822,-0.75186 -1.17308,-1.3026 -1.84445,-1.65195 -0.67137,-0.34935 -1.44835,-0.52417 -2.33094,-0.52417 z m 1.50467,2.93918 c 0.84487,0 1.50143,0.31136 1.96912,0.93411 0.4677,0.62276 0.7016,1.50371 0.7016,2.64289 0,1.13158 -0.2339,2.00911 -0.7016,2.63186 -0.46769,0.62276 -1.12425,0.93412 -1.96912,0.93412 -0.86749,0 -1.52752,-0.29994 -1.98013,-0.89991 -0.4526,-0.60756 -0.67898,-1.49651 -0.67898,-2.66607 0,-1.13918 0.2339,-2.02013 0.70159,-2.64289 0.4677,-0.62275 1.1202,-0.93411 1.95752,-0.93411 z m -15.93151,4.36325 2.10421,0 0,0.46677 c 0,0.8278 -0.25995,1.51908 -0.78045,2.07349 -0.5205,0.5468 -1.162,0.82046 -1.92389,0.82046 -0.61102,0 -1.08983,-0.14454 -1.43683,-0.43314 -0.33946,-0.29618 -0.50909,-0.70238 -0.50909,-1.21881 0,-0.56199 0.21132,-0.98704 0.63375,-1.27563 0.42998,-0.28859 1.06743,-0.43314 1.9123,-0.43314 z"
         style="opacity:1;fill:#554400;fill-opacity:1;stroke:none;stroke-width:2.79999995;stroke-linecap:round;stroke-miterlimit:4;stroke-dasharray:none;stroke-opacity:1"
         inkscape:connector-curvature="0" />
    </g>
    <g
       id="xxicon19h"
       inkscape:label="#g4537"
       transform="translate(0,-2.8571429)">
      <rect
         y="313.37936"
         x="390.43359"
         height="19"
         width="19"
         id="rect4515"
         style="opacity:1;fill:#f2f2f2;fill-opacity:1;stroke:none;stroke-width:2.79999995;stroke-linecap:round;stroke-miterlimit:4;stroke-dasharray:none;stroke-opacity:1" />
      <path
         inkscape:connector-curvature="0"
         style="font-style:normal;font-variant:normal;font-weight:bold;font-stretch:normal;font-size:78.32198334px;line-height:125%;font-family:'Trebuchet MS';-inkscape-font-specification:'Trebuchet MS Bold';letter-spacing:0px;word-spacing:0px;opacity:1;fill:#ffcc00;fill-opacity:1;stroke:none;stroke-width:1px;stroke-linecap:butt;stroke-linejoin:miter;stroke-opacity:1"
         d="m 391.60303,317.569 c -0.28001,-0.008 -0.53451,0.0505 -0.72218,0.29282 -0.12198,0.53303 0.24536,1.25321 -0.4169,1.58005 -0.0104,0.005 -0.02,0.009 -0.0305,0.0142 l 0,2.08392 c 0.043,-0.0103 0.0882,-0.0253 0.13598,-0.0458 0.40665,0.007 0.1712,0.72229 0.26585,0.96716 -0.0566,1.2361 -0.26235,2.94403 1.00108,3.6718 1.10777,0.48424 2.34664,0.21866 3.51119,0.25339 -0.17306,-0.68085 0.34148,-1.52893 -0.26615,-2.08712 -0.51258,0.005 -1.50346,0.36781 -1.68702,-0.33224 0.35181,-0.7894 -0.43817,-1.85712 0.29484,-2.4585 0.65331,-0.0408 1.55571,0.25642 1.96332,-0.47372 -0.30374,-0.48 0.29084,-1.39188 -0.50764,-1.58817 -0.56023,-0.23152 -1.5791,0.39488 -1.76386,-0.39428 0.0114,-0.43514 0.31146,-1.43129 -0.35805,-1.43248 -0.41591,0.16033 -0.95332,-0.0377 -1.42001,-0.051 z m 7.39056,1.71689 c -0.91985,0.0397 -1.86002,0.0991 -2.72522,0.44328 0.13345,0.68858 -0.32231,1.49553 0.19686,2.09639 1.05272,-0.49614 2.58414,-1.02492 3.53901,-0.15249 -0.67082,0.21609 -1.44507,-0.0943 -2.1477,0.15336 -1.19632,0.15461 -2.2749,1.15433 -2.18945,2.41414 -0.004,1.65783 1.89658,2.77923 3.40246,2.24338 0.35347,-0.0159 0.78701,-0.46618 0.99297,-0.45517 0.19274,0.79266 1.15996,0.29278 1.6963,0.35979 0.39989,-0.0447 1.01996,0.1403 0.94252,-0.4485 0.0389,-1.07602 -0.0803,-2.1497 0.0209,-3.22562 0.068,-1.32969 -0.50499,-2.92988 -1.95115,-3.23316 -0.57534,-0.17072 -1.1809,-0.20101 -1.77748,-0.1954 z m 7.58829,0.0113 c -0.0678,-10e-4 -0.13559,-3.6e-4 -0.20323,0.002 -2.04053,0.0698 -3.16519,2.43633 -2.79451,4.25337 0.10401,1.92967 2.35063,3.56178 4.16031,2.60548 0.26439,-0.0804 0.75534,-0.64043 0.49634,-0.0612 -0.45507,1.23893 -2.08367,0.97287 -3.04355,0.55751 -0.71813,-0.43593 -0.99525,-0.47896 -0.84221,0.40414 -0.18262,0.59855 -0.15854,1.61421 0.6842,1.63253 1.39079,0.36851 3.13668,0.40411 4.39427,-0.35863 l 0,-8.92799 c -0.45389,-0.0282 -0.88041,0.0127 -1.09791,0.40733 -0.34456,0.0676 -0.72086,-0.44855 -1.14865,-0.44821 -0.19867,-0.0437 -0.40177,-0.0633 -0.60506,-0.0664 z m 0.66739,2.0616 c 1.27488,0.10937 1.39092,2.05994 0.60941,2.78755 -0.82413,0.60602 -1.75663,-0.28758 -1.64093,-1.16721 0.0125,-0.63855 0.19517,-1.64869 1.03152,-1.62034 z m -7.44681,2.13321 c 0.61445,0.24916 -0.10844,1.14184 -0.56882,1.11328 -0.59144,0.27299 -1.28963,-0.56461 -0.64651,-0.93672 0.38069,-0.16375 0.81131,-0.13061 1.21533,-0.17656 z"
         id="path4519" />
      <rect
         transform="matrix(0.93227343,-0.3617544,0.3617544,0.93227343,0,0)"
         rx="2.2265625"
         ry="2.2265625"
         y="439.92383"
         x="247.75407"
         height="12.059373"
         width="16.697592"
         id="rect4517"
         style="opacity:1;fill:#ffd42a;fill-opacity:1;stroke:none;stroke-width:2.79999995;stroke-linecap:round;stroke-miterlimit:4;stroke-dasharray:none;stroke-opacity:1" />
      <path
         inkscape:connector-curvature="0"
         style="opacity:1;fill:#554400;fill-opacity:1;stroke:none;stroke-width:2.79999995;stroke-linecap:round;stroke-miterlimit:4;stroke-dasharray:none;stroke-opacity:1"
         d="m 391.11017,317.92473 0,1.8114 -0.67667,0 0,1.45799 0.67667,0 0,2.70551 c 0,0.80502 0.16588,1.37661 0.49779,1.71457 0.33568,0.33416 0.90336,0.50126 1.70297,0.50126 l 1.73689,0 0,-1.45828 -1.04109,0 c -0.347,0 -0.57888,-0.0511 -0.6958,-0.15365 -0.11692,-0.10633 -0.1754,-0.30771 -0.1754,-0.6039 l 0,-2.70551 2.08769,0 0,-1.45799 -2.08769,0 0,-1.8114 -2.02536,0 z m 8.0565,1.65746 c -0.43752,0 -0.87522,0.0286 -1.31274,0.0855 -0.43752,0.0532 -0.87291,0.13286 -1.30666,0.23918 l 0,1.55512 c 0.3206,-0.17468 0.6674,-0.30579 1.04081,-0.39313 0.3734,-0.0873 0.77694,-0.13104 1.21069,-0.13104 0.53559,0 0.92987,0.076 1.18257,0.22787 0.25271,0.1481 0.37892,0.38347 0.37892,0.70624 l 0,0.15945 -1.19359,0 c -1.0938,0 -1.89712,0.17483 -2.41008,0.52417 -0.50918,0.34935 -0.76393,0.89809 -0.76393,1.64615 0,0.61516 0.2038,1.11619 0.61115,1.50351 0.41112,0.38353 0.94464,0.57549 1.60092,0.57549 0.48655,0 0.89965,-0.0874 1.2391,-0.26209 0.33946,-0.17847 0.64487,-0.46126 0.91643,-0.84858 l 0,0.94541 2.04247,0 0,-3.63961 c 0,-1.02147 -0.25446,-1.75817 -0.76364,-2.21004 -0.50542,-0.45567 -1.32958,-0.68362 -2.47242,-0.68362 z m 7.35491,0.0113 c -0.77321,0 -1.41268,0.30594 -1.91809,0.9173 -0.50542,0.60756 -0.75814,1.38767 -0.75814,2.34079 0,0.94932 0.25272,1.73172 0.75814,2.34688 0.50541,0.61136 1.14488,0.917 1.91809,0.917 0.44129,0 0.82978,-0.0874 1.16546,-0.26208 0.33569,-0.17467 0.64312,-0.44804 0.92223,-0.82018 l 0,0.43865 c 0,0.62275 -0.15487,1.08037 -0.46416,1.37276 -0.30928,0.29239 -0.79561,0.43835 -1.45944,0.43835 -0.34323,0 -0.68482,-0.0511 -1.02428,-0.15366 -0.33945,-0.0987 -0.68626,-0.25069 -1.0408,-0.45575 l 0,1.58933 c 0.3734,0.12531 0.74481,0.21814 1.11444,0.2789 0.36963,0.0608 0.75262,0.0913 1.14865,0.0913 1.07475,0 1.92434,-0.21028 2.54982,-0.63028 l 0,-8.26669 -0.82423,0 0,0.94542 c -0.27911,-0.37593 -0.58654,-0.6513 -0.92223,-0.82597 -0.33568,-0.17468 -0.72417,-0.26209 -1.16546,-0.26209 z m 0.75233,1.46959 c 0.42244,0 0.75071,0.15568 0.98456,0.46706 0.23385,0.31137 0.3508,0.75185 0.3508,1.32144 0,0.56579 -0.11695,1.00456 -0.3508,1.31593 -0.23385,0.31138 -0.56212,0.46706 -0.98456,0.46706 -0.43375,0 -0.76376,-0.14997 -0.99006,-0.44995 -0.22631,-0.30378 -0.3395,-0.74826 -0.3395,-1.33304 0,-0.56959 0.11696,-1.01007 0.3508,-1.32144 0.23385,-0.31138 0.5601,-0.46706 0.97876,-0.46706 z m -7.96576,2.18163 1.05211,0 0,0.23338 c 0,0.4139 -0.12998,0.75954 -0.39023,1.03674 -0.26025,0.27341 -0.581,0.41024 -0.96194,0.41024 -0.30551,0 -0.54492,-0.0723 -0.71842,-0.21657 -0.16972,-0.1481 -0.25454,-0.35119 -0.25454,-0.60941 0,-0.281 0.10566,-0.49352 0.31688,-0.63782 0.21499,-0.14429 0.53371,-0.21656 0.95614,-0.21656 z"
         id="path4521" />
    </g>
  </g>
</svg>
